<svg width="736" height="485" viewBox="0 0 736 485" fill="none" xmlns="http://www.w3.org/2000/svg">
<path d="M521.12 146.155L41.342 149.335C26.1099 149.436 12.1209 140.946 5.17999 127.386C-1.15317 115.015 -0.668812 100.254 6.46174 88.3236L15.2581 73.6066C19.0627 67.2412 23.8375 61.5086 29.4099 56.6157L40.9989 46.44C54.9057 34.2291 70.7186 24.3784 87.8097 17.279L91.4195 15.7796C114.909 6.02261 140.093 1 165.528 1H488.097C503.326 1 518.516 2.54621 533.433 5.61485L548.603 8.73553C581.452 15.493 612.375 29.5081 639.109 49.7557L643.793 53.3027C658.871 64.722 672.449 77.9969 684.205 92.8133L688.549 98.2877C698.155 110.394 706.43 123.499 713.23 137.377C722.69 156.684 729.21 177.329 732.563 198.565C736.161 221.352 736.086 244.602 732.33 267.364L729.271 285.9C724.148 316.954 712.565 346.588 695.273 372.887L691.072 379.276C679.42 396.996 665.232 412.911 648.959 426.512C621.1 449.797 587.838 465.713 552.226 472.798L550.241 473.193C524.307 478.353 497.639 478.642 471.599 474.047L466.609 473.166C450.942 470.402 435.722 465.525 421.366 458.67L417.726 456.932C397.799 447.418 380.103 433.809 365.792 416.993C353.694 402.778 344.142 386.286 337.75 368.749C331.356 351.208 328 332.449 328 313.779V244.464C328 237.413 331.904 230.942 338.141 227.655L456.332 165.365C465.265 160.658 476 167.135 476 177.232V279.331C476 299.769 484.844 319.207 500.253 332.634C507.182 338.673 516.064 342 525.256 342H531.098C546.89 342 561.881 335.043 572.075 322.981L575.848 318.518C585.955 306.56 591.5 291.41 591.5 275.753V209.207C591.5 189.684 581.842 171.425 565.705 160.437L563.826 159.158C551.241 150.589 536.345 146.054 521.12 146.155Z" fill="url(#paint0_linear_2_3)"/>
<path d="M278.311 170.209L173.853 227.588C167.776 230.926 164 237.308 164 244.241V416.133C164 433.099 170.324 449.456 181.736 462.01C192.865 474.251 208.063 482.03 224.5 483.898L225.706 484.035C237.069 485.326 248.576 483.87 259.26 479.788L265.104 477.556C279.614 472.013 291.844 461.761 299.835 448.442C306.48 437.367 309.901 424.658 309.714 411.745L306.457 186.587C306.25 172.263 290.868 163.312 278.311 170.209Z" fill="url(#paint1_linear_2_3)"/>
<path d="M521.12 146.155L41.342 149.335C26.1099 149.436 12.1209 140.946 5.17999 127.386C-1.15317 115.015 -0.668812 100.254 6.46174 88.3236L15.2581 73.6066C19.0627 67.2412 23.8375 61.5086 29.4099 56.6157L40.9989 46.44C54.9057 34.2291 70.7186 24.3784 87.8097 17.279L91.4195 15.7796C114.909 6.02261 140.093 1 165.528 1H488.097C503.326 1 518.516 2.54621 533.433 5.61485L548.603 8.73553C581.452 15.493 612.375 29.5081 639.109 49.7557L643.793 53.3027C658.871 64.722 672.449 77.9969 684.205 92.8133L688.549 98.2877C698.155 110.394 706.43 123.499 713.23 137.377C722.69 156.684 729.21 177.329 732.563 198.565C736.161 221.352 736.086 244.602 732.33 267.364L729.271 285.9C724.148 316.954 712.565 346.588 695.273 372.887L691.072 379.276C679.42 396.996 665.232 412.911 648.959 426.512C621.1 449.797 587.838 465.713 552.226 472.798L550.241 473.193C524.307 478.353 497.639 478.642 471.599 474.047L466.609 473.166C450.942 470.402 435.722 465.525 421.366 458.67L417.726 456.932C397.799 447.418 380.103 433.809 365.792 416.993C353.694 402.778 344.142 386.286 337.75 368.749C331.356 351.208 328 332.449 328 313.779V244.464C328 237.413 331.904 230.942 338.141 227.655L456.332 165.365C465.265 160.658 476 167.135 476 177.232V279.331C476 299.769 484.844 319.207 500.253 332.634C507.182 338.673 516.064 342 525.256 342H531.098C546.89 342 561.881 335.043 572.075 322.981L575.848 318.518C585.955 306.56 591.5 291.41 591.5 275.753V209.207C591.5 189.684 581.842 171.425 565.705 160.437L563.826 159.158C551.241 150.589 536.345 146.054 521.12 146.155Z" stroke="white"/>
<path d="M278.311 170.209L173.853 227.588C167.776 230.926 164 237.308 164 244.241V416.133C164 433.099 170.324 449.456 181.736 462.01C192.865 474.251 208.063 482.03 224.5 483.898L225.706 484.035C237.069 485.326 248.576 483.87 259.26 479.788L265.104 477.556C279.614 472.013 291.844 461.761 299.835 448.442C306.48 437.367 309.901 424.658 309.714 411.745L306.457 186.587C306.25 172.263 290.868 163.312 278.311 170.209Z" stroke="white"/>
<defs>
<linearGradient id="paint0_linear_2_3" x1="206" y1="486" x2="630" y2="43.5" gradientUnits="userSpaceOnUse">
<stop offset="0.00332458" stop-color="#90A8FF"/>
<stop offset="0.685017" stop-color="#7154BC"/>
<stop offset="0.97115" stop-color="#650990"/>
</linearGradient>
<linearGradient id="paint1_linear_2_3" x1="206" y1="486" x2="630" y2="43.5" gradientUnits="userSpaceOnUse">
<stop offset="0.00332458" stop-color="#90A8FF"/>
<stop offset="0.685017" stop-color="#7154BC"/>
<stop offset="0.97115" stop-color="#650990"/>
</linearGradient>
</defs>
</svg>
