<svg width="736" height="484" viewBox="0 0 736 484" fill="none" xmlns="http://www.w3.org/2000/svg">
<path d="M521.12 145.155L41.342 148.335C26.1099 148.436 12.1209 139.946 5.17999 126.386C-1.15317 114.015 -0.668812 99.2536 6.46174 87.3236L15.2581 72.6066C19.0627 66.2412 23.8375 60.5086 29.4099 55.6157L40.9989 45.44C54.9057 33.2291 70.7186 23.3784 87.8097 16.279L91.4195 14.7796C114.909 5.02261 140.093 0 165.528 0H488.097C503.326 0 518.516 1.54621 533.433 4.61485L548.603 7.73553C581.452 14.493 612.375 28.5081 639.109 48.7557L643.793 52.3027C658.871 63.722 672.449 76.9969 684.205 91.8133L688.549 97.2877C698.155 109.394 706.43 122.499 713.23 136.377C722.69 155.684 729.21 176.329 732.563 197.565C736.161 220.352 736.086 243.602 732.33 266.364L729.271 284.9C724.148 315.954 712.565 345.588 695.273 371.887L691.072 378.276C679.42 395.996 665.232 411.911 648.959 425.512C621.1 448.797 587.838 464.713 552.226 471.798L550.241 472.193C524.307 477.353 497.639 477.642 471.599 473.047L466.609 472.166C450.942 469.402 435.722 464.525 421.366 457.67L417.726 455.932C397.799 446.418 380.103 432.809 365.792 415.993C353.694 401.778 344.142 385.286 337.75 367.749C331.356 350.208 328 331.449 328 312.779V243.464C328 236.413 331.904 229.942 338.141 226.655L456.332 164.365C465.265 159.658 476 166.135 476 176.232V278.331C476 298.769 484.844 318.207 500.253 331.634C507.182 337.673 516.064 341 525.256 341H531.098C546.89 341 561.881 334.043 572.075 321.981L575.848 317.518C585.955 305.56 591.5 290.41 591.5 274.753V208.207C591.5 188.684 581.842 170.425 565.705 159.437L563.826 158.158C551.241 149.589 536.345 145.054 521.12 145.155Z" fill="url(#paint0_linear_2_3)"/>
<path d="M278.311 169.209L173.853 226.588C167.776 229.926 164 236.308 164 243.241V415.133C164 432.099 170.324 448.456 181.736 461.01C192.865 473.251 208.063 481.03 224.5 482.898L225.706 483.035C237.069 484.326 248.576 482.87 259.26 478.788L265.104 476.556C279.614 471.013 291.844 460.761 299.835 447.442C306.48 436.367 309.901 423.658 309.714 410.745L306.457 185.587C306.25 171.263 290.868 162.312 278.311 169.209Z" fill="url(#paint1_linear_2_3)"/>
<defs>
<linearGradient id="paint0_linear_2_3" x1="206" y1="485" x2="630" y2="42.5" gradientUnits="userSpaceOnUse">
<stop offset="0.00332458" stop-color="#90A8FF"/>
<stop offset="0.685017" stop-color="#7154BC"/>
<stop offset="0.97115" stop-color="#650990"/>
</linearGradient>
<linearGradient id="paint1_linear_2_3" x1="206" y1="485" x2="630" y2="42.5" gradientUnits="userSpaceOnUse">
<stop offset="0.00332458" stop-color="#90A8FF"/>
<stop offset="0.685017" stop-color="#7154BC"/>
<stop offset="0.97115" stop-color="#650990"/>
</linearGradient>
</defs>
</svg>
